<svg width="320" height="120" viewBox="0 0 320 120" fill="none" xmlns="http://www.w3.org/2000/svg">
<path d="M160 0.781006C157.414 0.781006 154.933 1.80849 153.104 3.63741C151.275 5.46634 150.248 7.94689 150.248 10.5334C150.248 13.1199 151.275 15.6004 153.104 17.4294C154.933 19.2583 157.414 20.2858 160 20.2858C162.587 20.2858 165.067 19.2583 166.896 17.4294C168.725 15.6004 169.753 13.1199 169.753 10.5334C169.753 7.94689 168.725 5.46634 166.896 3.63741C165.067 1.80849 162.587 0.781006 160 0.781006ZM147.832 22.7239C147.19 22.721 146.553 22.845 145.959 23.0887C145.365 23.3325 144.825 23.6912 144.37 24.1443C143.914 24.5974 143.553 25.1359 143.307 25.7289C143.06 26.322 142.934 26.9579 142.934 27.6001C142.934 31.7229 144.965 34.8314 148.139 36.8575C151.265 38.8494 155.478 39.7905 160 39.7905C164.523 39.7905 168.736 38.8494 171.862 36.8575C175.036 34.8339 177.067 31.7204 177.067 27.6001C177.067 26.3068 176.553 25.0665 175.639 24.1521C174.724 23.2376 173.484 22.7239 172.191 22.7239H147.832Z" fill="url(#paint0_linear_347_1252)"/>
<rect x="166" y="29" width="11.4812" height="11.4812" rx="3.10303" fill="url(#paint1_linear_347_1252)"/>
<path d="M171.797 32.103V37.3782M174.379 34.6845L169.104 34.6845" stroke="#FFF8ED" stroke-width="1.86182" stroke-linecap="round"/>
<path d="M126.065 78.675V81.0657H117.768V88.2375H114.815V81.0657H106.612V78.675H126.065ZM124.33 68.0344V70.3782H118.12C118.412 72.4641 120.768 74.5618 125.151 75.0891L124.073 77.4329C120.323 76.929 117.639 75.3235 116.362 73.1204C115.049 75.3235 112.389 76.929 108.674 77.4329L107.573 75.0891C111.885 74.5618 114.264 72.4641 114.604 70.3782H108.37V68.0344H124.33ZM144.973 66.9329V82.261H141.973V66.9329H144.973ZM145.536 85.4719V87.8625H130.676V80.7141H133.7V85.4719H145.536ZM133.278 68.2922C136.559 68.2922 139.114 70.5422 139.114 73.6594C139.114 76.8469 136.559 79.0735 133.278 79.0735C129.997 79.0735 127.442 76.8469 127.442 73.6594C127.442 70.5422 129.997 68.2922 133.278 68.2922ZM133.278 70.8938C131.614 70.8704 130.348 71.925 130.372 73.6594C130.348 75.4407 131.614 76.4719 133.278 76.4719C134.895 76.4719 136.161 75.4407 136.161 73.6594C136.161 71.925 134.895 70.8704 133.278 70.8938ZM172.431 83.2688V85.7532H152.907V83.2688H172.431ZM170.79 68.7844V71.175H167.79V77.6438H170.696V79.9875H154.525V77.6438H157.384V71.175H154.431V68.7844H170.79ZM160.384 77.6438H164.837V71.175H160.384V77.6438ZM192.933 83.4094V85.8704H173.41V83.4094H181.636V80.1985H175.66V73.0266H187.73V70.6829H175.636V68.2922H190.683V75.3704H178.66V77.761H191.175V80.1985H184.613V83.4094H192.933ZM211.818 66.9094V77.8547H208.818V66.9094H211.818ZM211.818 78.6985V84.3938H200.31V85.7297H212.404V88.0969H197.357V82.261H208.865V81.0188H197.31V78.6985H211.818ZM206.427 68.2219V70.4954H204.67V74.7375C205.548 74.679 206.416 74.5969 207.248 74.5032L207.388 76.636C203.146 77.3157 198.295 77.4329 194.591 77.4329L194.263 75.0891C194.99 75.0891 195.763 75.0774 196.56 75.0657V70.4954H194.826V68.2219H206.427ZM199.42 74.9954C200.205 74.9836 200.99 74.9602 201.787 74.925V70.4954H199.42V74.9954Z" fill="black"/>
<path d="M148.438 113.081V111.613L152.438 107.753C153.578 106.613 154.172 105.941 154.172 104.988C154.172 103.941 153.344 103.269 152.234 103.269C151.062 103.269 150.312 104.003 150.328 105.144H148.391C148.375 103.003 149.984 101.613 152.25 101.613C154.562 101.613 156.125 102.988 156.125 104.894C156.125 106.175 155.5 107.206 153.281 109.3L151.266 111.3V111.378H156.297V113.081H148.438ZM162.223 101.238L158.583 114.784H156.833L160.489 101.238H162.223ZM162.852 113.081V111.613L166.852 107.753C167.993 106.613 168.587 105.941 168.587 104.988C168.587 103.941 167.759 103.269 166.649 103.269C165.477 103.269 164.727 104.003 164.743 105.144H162.806C162.79 103.003 164.399 101.613 166.665 101.613C168.977 101.613 170.54 102.988 170.54 104.894C170.54 106.175 169.915 107.206 167.696 109.3L165.681 111.3V111.378H170.712V113.081H162.852Z" fill="#464FE5"/>
<defs>
<linearGradient id="paint0_linear_347_1252" x1="150.691" y1="2.75373" x2="170.085" y2="39.2143" gradientUnits="userSpaceOnUse">
<stop stop-color="#5B63E0"/>
<stop offset="1" stop-color="#464FE5"/>
</linearGradient>
<linearGradient id="paint1_linear_347_1252" x1="171.741" y1="29" x2="171.741" y2="90.4094" gradientUnits="userSpaceOnUse">
<stop stop-color="#FB993C"/>
<stop offset="1" stop-color="#C7D8FE"/>
</linearGradient>
</defs>
</svg>
