<svg width="123" height="80" viewBox="0 0 123 80" fill="none" xmlns="http://www.w3.org/2000/svg">
<path d="M21.0918 7.27273C21.0918 3.25611 24.3479 0 28.3645 0H93.8191C97.8357 0 101.092 3.25611 101.092 7.27273V72.7273C101.092 76.7439 97.8357 80 93.8191 80H50.1827C34.1162 80 21.0918 66.9756 21.0918 50.9091V7.27273Z" fill="white"/>
<path d="M21.0918 7.27273C21.0918 3.25611 24.3479 0 28.3645 0H93.8191C97.8357 0 101.092 3.25611 101.092 7.27273V72.7273C101.092 76.7439 97.8357 80 93.8191 80H50.1827C34.1162 80 21.0918 66.9756 21.0918 50.9091V7.27273Z" fill="url(#paint0_linear_278_7486)"/>
<path d="M51.5454 15.7044C51.5454 18.3152 49.4289 20.4316 46.8181 20.4316C44.2073 20.4316 42.0908 18.3152 42.0908 15.7044C42.0908 13.0936 44.2073 10.9771 46.8181 10.9771C49.4289 10.9771 51.5454 13.0936 51.5454 15.7044Z" fill="#464FE5"/>
<path d="M80.6363 15.7044C80.6363 18.3152 78.5198 20.4316 75.909 20.4316C73.2982 20.4316 71.1817 18.3152 71.1817 15.7044C71.1817 13.0936 73.2982 10.9771 75.909 10.9771C78.5198 10.9771 80.6363 13.0936 80.6363 15.7044Z" fill="#464FE5"/>
<path d="M81.3635 39.458C81.3635 44.6362 79.3828 47.3767 75.3635 50.5927C71.8502 53.4038 61.5454 52.5072 61.5454 45.1993C61.5454 52.5072 50.8769 53.4038 47.3635 50.5927C43.3443 47.3767 41.7272 44.6362 41.7272 39.458C41.7272 29.7534 50.6001 21.8862 61.5454 21.8862C72.4906 21.8862 81.3635 29.7534 81.3635 39.458Z" fill="#464FE5"/>
<path d="M4.65202 18.6143L22.5976 1.95678C27.2514 -2.36297 34.8181 0.937477 34.8181 7.28712V33.8452C34.8181 46.0345 20.7244 52.8174 11.1981 45.2129L5.47301 40.6426C-1.47695 35.0947 -1.86569 24.6642 4.65202 18.6143Z" fill="#464FE5"/>
<path d="M117.711 18.6143L99.7658 1.95678C95.112 -2.36297 87.5454 0.937477 87.5454 7.28712V33.8452C87.5454 46.0345 101.639 52.8174 111.165 45.2129L116.89 40.6426C123.84 35.0947 124.229 24.6642 117.711 18.6143Z" fill="#464FE5"/>
<rect x="74.1836" y="53.0918" width="26.9091" height="26.9091" rx="7.27273" fill="url(#paint1_linear_278_7486)"/>
<path d="M87.7694 60.3643V72.7279M93.8197 66.4145L81.4561 66.4145" stroke="#FFF8ED" stroke-width="4.36364" stroke-linecap="round"/>
<path d="M58.1816 28.7266H63.9998" stroke="#FFF8ED" stroke-width="4.36364" stroke-linecap="round"/>
<defs>
<linearGradient id="paint0_linear_278_7486" x1="61.0918" y1="-93.1813" x2="61.0918" y2="137.818" gradientUnits="userSpaceOnUse">
<stop stop-color="#FFF8ED" stop-opacity="0.5"/>
<stop offset="1" stop-color="#D6E4FF"/>
</linearGradient>
<linearGradient id="paint1_linear_278_7486" x1="87.6381" y1="53.0918" x2="87.6381" y2="197.02" gradientUnits="userSpaceOnUse">
<stop stop-color="#FB993C"/>
<stop offset="1" stop-color="#C7D8FE"/>
</linearGradient>
</defs>
</svg>
