<svg width="34" height="40" viewBox="0 0 34 40" fill="none" xmlns="http://www.w3.org/2000/svg">
<path d="M17.0007 0.81665C14.4896 0.81665 12.0814 1.81417 10.3058 3.58977C8.53018 5.36537 7.53266 7.7736 7.53266 10.2847C7.53266 12.7957 8.53018 15.204 10.3058 16.9796C12.0814 18.7552 14.4896 19.7527 17.0007 19.7527C19.5118 19.7527 21.92 18.7552 23.6956 16.9796C25.4712 15.204 26.4687 12.7957 26.4687 10.2847C26.4687 7.7736 25.4712 5.36537 23.6956 3.58977C21.92 1.81417 19.5118 0.81665 17.0007 0.81665ZM5.18695 22.1197C4.56348 22.1169 3.9456 22.2373 3.36878 22.4739C2.79197 22.7106 2.26758 23.0588 1.82572 23.4987C1.38387 23.9386 1.03326 24.4614 0.794023 25.0371C0.554786 25.6129 0.431634 26.2302 0.431641 26.8537C0.431641 30.8563 2.40336 33.8742 5.4852 35.8412C8.5197 37.7751 12.6099 38.6887 17.0007 38.6887C21.3915 38.6887 25.4817 37.7751 28.5162 35.8412C31.598 33.8766 33.5697 30.8539 33.5697 26.8537C33.5697 25.5982 33.0709 24.3941 32.1832 23.5063C31.2954 22.6185 30.0912 22.1197 28.8357 22.1197H5.18695Z" fill="url(#paint0_linear_843_5471)"/>
<rect x="22.8252" y="28.2126" width="11.1464" height="11.1464" rx="3.01255" fill="url(#paint1_linear_843_5471)"/>
<path d="M28.453 31.2251V36.3464M30.9592 33.7313L25.8379 33.7313" stroke="#FFF8ED" stroke-width="1.80753" stroke-linecap="round"/>
<defs>
<linearGradient id="paint0_linear_843_5471" x1="7.96302" y1="2.73186" x2="26.7915" y2="38.1293" gradientUnits="userSpaceOnUse">
<stop stop-color="#5B63E0"/>
<stop offset="1" stop-color="#464FE5"/>
</linearGradient>
<linearGradient id="paint1_linear_843_5471" x1="28.3984" y1="28.2126" x2="28.3984" y2="87.8315" gradientUnits="userSpaceOnUse">
<stop stop-color="#FB993C"/>
<stop offset="1" stop-color="#C7D8FE"/>
</linearGradient>
</defs>
</svg>
