<svg width="60" height="60" viewBox="0 0 60 60" fill="none" xmlns="http://www.w3.org/2000/svg">
<g clip-path="url(#clip0_1157_5545)">
<rect x="0.5" y="0.5" width="59.0006" height="58.9999" rx="12" fill="#464FE5"/>
<path opacity="0.1" d="M41.4844 20.1636L69.1285 47.8074L47.8497 69.0861L20.2056 41.4422L25.8332 40.4995L25.8332 37.1662L31.1666 30.4995L35.8333 25.8328L39.8333 25.8328L41.4844 20.1636Z" fill="#819AF8"/>
<path d="M34.1102 16.6317C32.9709 17.771 32.3806 19.7566 32.8099 21.3114C33.0384 22.1333 33.0752 23.1284 32.4726 23.7325L23.7326 32.4724C23.1284 33.075 22.1333 33.0382 21.3099 32.8098C19.7566 32.3804 17.771 32.9708 16.6317 34.11C16.273 34.4686 15.9884 34.8944 15.7942 35.363C15.6001 35.8316 15.5001 36.3339 15.5 36.8411C15.4999 37.8655 15.9067 38.848 16.6309 39.5725C17.3552 40.2969 18.3376 40.704 19.362 40.7042C20.3864 40.7043 21.369 40.2975 22.0934 39.5732C21.3692 40.2977 20.9624 41.2802 20.9625 42.3046C20.9626 43.329 21.3697 44.3114 22.0942 45.0357C22.8187 45.76 23.8012 46.1668 24.8256 46.1666C25.85 46.1665 26.8324 45.7594 27.5567 45.0349C28.696 43.8957 29.2863 41.91 28.857 40.3552C28.6285 39.5334 28.5917 38.5383 29.1943 37.9341L37.9343 29.1942C38.5385 28.5916 39.5336 28.6284 40.357 28.8569C41.9103 29.2862 43.8959 28.6959 45.0352 27.5566C45.7597 26.8323 46.1667 25.8499 46.1669 24.8255C46.167 23.8011 45.7602 22.8186 45.036 22.0942C44.6773 21.7354 44.2516 21.4509 43.783 21.2567C43.3144 21.0625 42.8121 20.9625 42.3049 20.9625C41.2804 20.9623 40.2979 21.3691 39.5735 22.0934C40.2977 21.3689 40.7045 20.3864 40.7044 19.362C40.7042 18.3376 40.2972 17.3552 39.5727 16.6309C38.8482 15.9067 37.8657 15.4999 36.8413 15.5C35.8169 15.5001 34.8345 15.9072 34.1102 16.6317Z" fill="#6376F1"/>
<path d="M32.4432 14.9652C31.3039 16.1044 30.7136 18.0901 31.1429 19.6449C31.3714 20.4667 31.4082 21.4619 30.8056 22.066L22.0656 30.8059C21.4614 31.4085 20.4663 31.3717 19.6429 31.1433C18.0896 30.7139 16.104 31.3043 14.9647 32.4435C14.606 32.8021 14.3214 33.2279 14.1272 33.6965C13.9331 34.1651 13.8331 34.6674 13.833 35.1746C13.8329 36.199 14.2397 37.1815 14.9639 37.906C15.6882 38.6304 16.6706 39.0375 17.695 39.0377C18.7195 39.0378 19.702 38.631 20.4264 37.9067C19.7022 38.6312 19.2954 39.6137 19.2955 40.6381C19.2957 41.6625 19.7027 42.6449 20.4272 43.3692C21.1517 44.0935 22.1342 44.5003 23.1586 44.5001C24.183 44.5 25.1654 44.0929 25.8897 43.3684C27.029 42.2292 27.6193 40.2435 27.19 38.6887C26.9615 37.8669 26.9247 36.8718 27.5273 36.2676L36.2673 27.5277C36.8715 26.9251 37.8666 26.9619 38.69 27.1904C40.2433 27.6197 42.2289 27.0294 43.3682 25.8901C44.0927 25.1658 44.4998 24.1834 44.4999 23.159C44.5 22.1346 44.0932 21.1521 43.369 20.4276C43.0103 20.0689 42.5846 19.7844 42.116 19.5902C41.6474 19.396 41.1451 19.296 40.6379 19.296C39.6135 19.2958 38.6309 19.7026 37.9065 20.4269C38.6307 19.7024 39.0375 18.7199 39.0374 17.6955C39.0373 16.6711 38.6302 15.6887 37.9057 14.9644C37.1812 14.2402 36.1987 13.8334 35.1743 13.8335C34.1499 13.8336 33.1675 14.2407 32.4432 14.9652Z" fill="white"/>
</g>
<defs>
<clipPath id="clip0_1157_5545">
<rect x="0.5" y="0.5" width="59.0006" height="58.9999" rx="12" fill="white"/>
</clipPath>
</defs>
</svg>
