<svg width="15" height="10" viewBox="0 0 15 10" fill="none" xmlns="http://www.w3.org/2000/svg">
<path id="Vector" fill-rule="evenodd" clip-rule="evenodd" d="M8.31037 9.1564C8.0991 9.37641 7.81259 9.5 7.51384 9.5C7.2151 9.5 6.92859 9.37641 6.71731 9.1564L0.343948 2.51766C0.236343 2.40941 0.150514 2.27991 0.0914678 2.13673C0.0324221 1.99356 0.00134247 1.83956 4.25376e-05 1.68374C-0.00125739 1.52792 0.0272487 1.37339 0.0838968 1.22916C0.140545 1.08494 0.224201 0.95391 0.329984 0.843723C0.435766 0.733536 0.561557 0.646396 0.700016 0.58739C0.838475 0.528383 0.98683 0.49869 1.13642 0.500044C1.28602 0.501398 1.43385 0.533772 1.57131 0.595276C1.70876 0.656781 1.83308 0.746183 1.93701 0.858269L7.51384 6.66732L13.0907 0.858269C13.3032 0.644498 13.5878 0.526212 13.8832 0.528886C14.1786 0.531559 14.4611 0.65498 14.67 0.872564C14.8789 1.09015 14.9974 1.38449 15 1.69219C15.0025 1.99989 14.889 2.29633 14.6837 2.51766L8.31037 9.1564Z"/>
</svg>
