<svg width="28" height="28" viewBox="0 0 28 28" fill="none" xmlns="http://www.w3.org/2000/svg">
<g id="&#234;&#177;&#180;&#234;&#176;&#149;&#236;&#157;&#188;&#236;&#167;&#128;">
<path id="Vector" d="M8.16667 6.99992C7.85725 6.99992 7.5605 6.877 7.34171 6.65821C7.12292 6.43942 7 6.14267 7 5.83325V3.49992C7 3.1905 7.12292 2.89375 7.34171 2.67496C7.5605 2.45617 7.85725 2.33325 8.16667 2.33325C8.47609 2.33325 8.77283 2.45617 8.99162 2.67496C9.21042 2.89375 9.33333 3.1905 9.33333 3.49992V5.83325C9.33333 6.14247 9.21058 6.43904 8.99204 6.6578C8.7735 6.87656 8.47588 6.99961 8.16667 6.99992ZM19.8333 6.99992C19.5239 6.99992 19.2272 6.877 19.0084 6.65821C18.7896 6.43942 18.6667 6.14267 18.6667 5.83325V3.49992C18.6667 3.1905 18.7896 2.89375 19.0084 2.67496C19.2272 2.45617 19.5239 2.33325 19.8333 2.33325C20.1428 2.33325 20.4395 2.45617 20.6583 2.67496C20.8771 2.89375 21 3.1905 21 3.49992V5.83325C21 6.14247 20.8772 6.43904 20.6587 6.6578C20.4402 6.87656 20.1425 6.99961 19.8333 6.99992Z" fill="#A5BEFC"/>
<path id="Vector_2" d="M22.1663 4.66699H20.9997V5.83366C20.9997 6.14308 20.8768 6.43982 20.658 6.65862C20.4392 6.87741 20.1424 7.00033 19.833 7.00033C19.5236 7.00033 19.2268 6.87741 19.008 6.65862C18.7893 6.43982 18.6663 6.14308 18.6663 5.83366V4.66699H9.33301V5.83366C9.33301 6.14308 9.21009 6.43982 8.9913 6.65862C8.77251 6.87741 8.47576 7.00033 8.16634 7.00033C7.85692 7.00033 7.56018 6.87741 7.34138 6.65862C7.12259 6.43982 6.99967 6.14308 6.99967 5.83366V4.66699H5.83301C4.90475 4.66699 4.01451 5.03574 3.35813 5.69212C2.70176 6.3485 2.33301 7.23873 2.33301 8.16699V10.5003H25.6663V8.16699C25.6663 7.23873 25.2976 6.3485 24.6412 5.69212C23.9848 5.03574 23.0946 4.66699 22.1663 4.66699Z" fill="#383ECA"/>
<path id="Vector_3" d="M8.16667 16.3333C8.811 16.3333 9.33333 15.811 9.33333 15.1667C9.33333 14.5223 8.811 14 8.16667 14C7.52233 14 7 14.5223 7 15.1667C7 15.811 7.52233 16.3333 8.16667 16.3333Z" fill="#819AF8"/>
<path id="Vector_4" d="M8.16667 21.0003C8.811 21.0003 9.33333 20.478 9.33333 19.8337C9.33333 19.1893 8.811 18.667 8.16667 18.667C7.52233 18.667 7 19.1893 7 19.8337C7 20.478 7.52233 21.0003 8.16667 21.0003Z" fill="#819AF8"/>
<path id="Vector_5" d="M13.9997 16.3333C14.644 16.3333 15.1663 15.811 15.1663 15.1667C15.1663 14.5223 14.644 14 13.9997 14C13.3553 14 12.833 14.5223 12.833 15.1667C12.833 15.811 13.3553 16.3333 13.9997 16.3333Z" fill="#819AF8"/>
<path id="Vector_6" d="M13.9997 21.0003C14.644 21.0003 15.1663 20.478 15.1663 19.8337C15.1663 19.1893 14.644 18.667 13.9997 18.667C13.3553 18.667 12.833 19.1893 12.833 19.8337C12.833 20.478 13.3553 21.0003 13.9997 21.0003Z" fill="#819AF8"/>
<path id="Vector_7" d="M19.8337 16.3333C20.478 16.3333 21.0003 15.811 21.0003 15.1667C21.0003 14.5223 20.478 14 19.8337 14C19.1893 14 18.667 14.5223 18.667 15.1667C18.667 15.811 19.1893 16.3333 19.8337 16.3333Z" fill="#819AF8"/>
<path id="Vector_8" d="M19.8337 21.0003C20.478 21.0003 21.0003 20.478 21.0003 19.8337C21.0003 19.1893 20.478 18.667 19.8337 18.667C19.1893 18.667 18.667 19.1893 18.667 19.8337C18.667 20.478 19.1893 21.0003 19.8337 21.0003Z" fill="#819AF8"/>
<g id="Vector_9">
<path d="M2.33301 10.5V22.1667C2.33301 23.0949 2.70176 23.9852 3.35813 24.6415C4.01451 25.2979 4.90475 25.6667 5.83301 25.6667H22.1663C23.0946 25.6667 23.9848 25.2979 24.6412 24.6415C25.2976 23.9852 25.6663 23.0949 25.6663 22.1667V16.3333V10.5H2.33301ZM8.16634 21C7.85692 21 7.56018 20.8771 7.34138 20.6583C7.12259 20.4395 6.99967 20.1428 6.99967 19.8333C6.99967 19.5239 7.12259 19.2272 7.34138 19.0084C7.56018 18.7896 7.85692 18.6667 8.16634 18.6667C8.47576 18.6667 8.77251 18.7896 8.9913 19.0084C9.21009 19.2272 9.33301 19.5239 9.33301 19.8333C9.33301 20.1428 9.21009 20.4395 8.9913 20.6583C8.77251 20.8771 8.47576 21 8.16634 21ZM8.16634 16.3333C7.85692 16.3333 7.56018 16.2104 7.34138 15.9916C7.12259 15.7728 6.99967 15.4761 6.99967 15.1667C6.99967 14.8572 7.12259 14.5605 7.34138 14.3417C7.56018 14.1229 7.85692 14 8.16634 14C8.47576 14 8.77251 14.1229 8.9913 14.3417C9.21009 14.5605 9.33301 14.8572 9.33301 15.1667C9.33301 15.4761 9.21009 15.7728 8.9913 15.9916C8.77251 16.2104 8.47576 16.3333 8.16634 16.3333ZM13.9997 21C13.6903 21 13.3935 20.8771 13.1747 20.6583C12.9559 20.4395 12.833 20.1428 12.833 19.8333C12.833 19.5239 12.9559 19.2272 13.1747 19.0084C13.3935 18.7896 13.6903 18.6667 13.9997 18.6667C14.3091 18.6667 14.6058 18.7896 14.8246 19.0084C15.0434 19.2272 15.1663 19.5239 15.1663 19.8333C15.1663 20.1428 15.0434 20.4395 14.8246 20.6583C14.6058 20.8771 14.3091 21 13.9997 21ZM13.9997 16.3333C13.6903 16.3333 13.3935 16.2104 13.1747 15.9916C12.9559 15.7728 12.833 15.4761 12.833 15.1667C12.833 14.8572 12.9559 14.5605 13.1747 14.3417C13.3935 14.1229 13.6903 14 13.9997 14C14.3091 14 14.6058 14.1229 14.8246 14.3417C15.0434 14.5605 15.1663 14.8572 15.1663 15.1667C15.1663 15.4761 15.0434 15.7728 14.8246 15.9916C14.6058 16.2104 14.3091 16.3333 13.9997 16.3333ZM19.833 21C19.5236 21 19.2268 20.8771 19.008 20.6583C18.7893 20.4395 18.6663 20.1428 18.6663 19.8333C18.6663 19.5239 18.7893 19.2272 19.008 19.0084C19.2268 18.7896 19.5236 18.6667 19.833 18.6667C20.1424 18.6667 20.4392 18.7896 20.658 19.0084C20.8768 19.2272 20.9997 19.5239 20.9997 19.8333C20.9997 20.1428 20.8768 20.4395 20.658 20.6583C20.4392 20.8771 20.1424 21 19.833 21ZM19.833 16.3333C19.5236 16.3333 19.2268 16.2104 19.008 15.9916C18.7893 15.7728 18.6663 15.4761 18.6663 15.1667C18.6663 14.8572 18.7893 14.5605 19.008 14.3417C19.2268 14.1229 19.5236 14 19.833 14C20.1424 14 20.4392 14.1229 20.658 14.3417C20.8768 14.5605 20.9997 14.8572 20.9997 15.1667C20.9997 15.4761 20.8768 15.7728 20.658 15.9916C20.4392 16.2104 20.1424 16.3333 19.833 16.3333Z" fill="white"/>
<path d="M2.33301 10.5V22.1667C2.33301 23.0949 2.70176 23.9852 3.35813 24.6415C4.01451 25.2979 4.90475 25.6667 5.83301 25.6667H22.1663C23.0946 25.6667 23.9848 25.2979 24.6412 24.6415C25.2976 23.9852 25.6663 23.0949 25.6663 22.1667V16.3333V10.5H2.33301ZM8.16634 21C7.85692 21 7.56018 20.8771 7.34138 20.6583C7.12259 20.4395 6.99967 20.1428 6.99967 19.8333C6.99967 19.5239 7.12259 19.2272 7.34138 19.0084C7.56018 18.7896 7.85692 18.6667 8.16634 18.6667C8.47576 18.6667 8.77251 18.7896 8.9913 19.0084C9.21009 19.2272 9.33301 19.5239 9.33301 19.8333C9.33301 20.1428 9.21009 20.4395 8.9913 20.6583C8.77251 20.8771 8.47576 21 8.16634 21ZM8.16634 16.3333C7.85692 16.3333 7.56018 16.2104 7.34138 15.9916C7.12259 15.7728 6.99967 15.4761 6.99967 15.1667C6.99967 14.8572 7.12259 14.5605 7.34138 14.3417C7.56018 14.1229 7.85692 14 8.16634 14C8.47576 14 8.77251 14.1229 8.9913 14.3417C9.21009 14.5605 9.33301 14.8572 9.33301 15.1667C9.33301 15.4761 9.21009 15.7728 8.9913 15.9916C8.77251 16.2104 8.47576 16.3333 8.16634 16.3333ZM13.9997 21C13.6903 21 13.3935 20.8771 13.1747 20.6583C12.9559 20.4395 12.833 20.1428 12.833 19.8333C12.833 19.5239 12.9559 19.2272 13.1747 19.0084C13.3935 18.7896 13.6903 18.6667 13.9997 18.6667C14.3091 18.6667 14.6058 18.7896 14.8246 19.0084C15.0434 19.2272 15.1663 19.5239 15.1663 19.8333C15.1663 20.1428 15.0434 20.4395 14.8246 20.6583C14.6058 20.8771 14.3091 21 13.9997 21ZM13.9997 16.3333C13.6903 16.3333 13.3935 16.2104 13.1747 15.9916C12.9559 15.7728 12.833 15.4761 12.833 15.1667C12.833 14.8572 12.9559 14.5605 13.1747 14.3417C13.3935 14.1229 13.6903 14 13.9997 14C14.3091 14 14.6058 14.1229 14.8246 14.3417C15.0434 14.5605 15.1663 14.8572 15.1663 15.1667C15.1663 15.4761 15.0434 15.7728 14.8246 15.9916C14.6058 16.2104 14.3091 16.3333 13.9997 16.3333ZM19.833 21C19.5236 21 19.2268 20.8771 19.008 20.6583C18.7893 20.4395 18.6663 20.1428 18.6663 19.8333C18.6663 19.5239 18.7893 19.2272 19.008 19.0084C19.2268 18.7896 19.5236 18.6667 19.833 18.6667C20.1424 18.6667 20.4392 18.7896 20.658 19.0084C20.8768 19.2272 20.9997 19.5239 20.9997 19.8333C20.9997 20.1428 20.8768 20.4395 20.658 20.6583C20.4392 20.8771 20.1424 21 19.833 21ZM19.833 16.3333C19.5236 16.3333 19.2268 16.2104 19.008 15.9916C18.7893 15.7728 18.6663 15.4761 18.6663 15.1667C18.6663 14.8572 18.7893 14.5605 19.008 14.3417C19.2268 14.1229 19.5236 14 19.833 14C20.1424 14 20.4392 14.1229 20.658 14.3417C20.8768 14.5605 20.9997 14.8572 20.9997 15.1667C20.9997 15.4761 20.8768 15.7728 20.658 15.9916C20.4392 16.2104 20.1424 16.3333 19.833 16.3333Z" fill="url(#paint0_linear_1595_2192)"/>
</g>
</g>
<defs>
<linearGradient id="paint0_linear_1595_2192" x1="13.9997" y1="-7.16561" x2="13.9997" y2="36.628" gradientUnits="userSpaceOnUse">
<stop stop-color="#FFF8ED" stop-opacity="0.5"/>
<stop offset="1" stop-color="#D6E4FF"/>
</linearGradient>
</defs>
</svg>
