<svg width="29" height="22" viewBox="0 0 29 22" fill="none" xmlns="http://www.w3.org/2000/svg">
<path d="M14.0918 16C16.3009 16 18.0918 14.2091 18.0918 12C18.0918 9.79086 16.3009 8 14.0918 8C11.8827 8 10.0918 9.79086 10.0918 12C10.0918 14.2091 11.8827 16 14.0918 16Z" fill="#767681"/>
<path d="M25.0918 4H21.4043C21.2168 4 20.9843 3.87875 20.803 3.6875L19.1818 1.12875C19.1562 1.08814 19.1275 1.04949 19.0962 1.01312C18.5362 0.36 17.7793 0 16.9668 0H11.2168C10.4043 0 9.64742 0.36 9.08742 1.01312C9.05605 1.04949 9.02743 1.08814 9.0018 1.12875L7.38055 3.69125C7.2418 3.8425 7.0468 4.00375 6.8418 4.00375V3.50375C6.8418 3.23853 6.73644 2.98418 6.5489 2.79664C6.36137 2.60911 6.10701 2.50375 5.8418 2.50375H4.3418C4.07658 2.50375 3.82223 2.60911 3.63469 2.79664C3.44715 2.98418 3.3418 3.23853 3.3418 3.50375V4.00375H3.0918C2.2964 4.00458 1.53382 4.32091 0.97139 4.88334C0.40896 5.44577 0.0926241 6.20835 0.0917969 7.00375V19C0.0926241 19.7954 0.40896 20.558 0.97139 21.1204C1.53382 21.6828 2.2964 21.9992 3.0918 22H25.0918C25.8872 21.9992 26.6498 21.6828 27.2122 21.1204C27.7746 20.558 28.091 19.7954 28.0918 19V7C28.091 6.2046 27.7746 5.44202 27.2122 4.87959C26.6498 4.31716 25.8872 4.00083 25.0918 4ZM14.0918 18C12.9051 18 11.7451 17.6481 10.7584 16.9888C9.77168 16.3295 9.00265 15.3925 8.54852 14.2961C8.09439 13.1997 7.97557 11.9933 8.20709 10.8295C8.4386 9.66557 9.01004 8.59647 9.84916 7.75736C10.6883 6.91824 11.7574 6.3468 12.9213 6.11529C14.0851 5.88378 15.2915 6.0026 16.3879 6.45672C17.4843 6.91085 18.4213 7.67988 19.0806 8.66658C19.7399 9.65327 20.0918 10.8133 20.0918 12C20.09 13.5907 19.4573 15.1158 18.3324 16.2406C17.2076 17.3655 15.6825 17.9982 14.0918 18Z" fill="#767681"/>
</svg>