<svg xmlns="http://www.w3.org/2000/svg" width="40" height="30" viewBox="0 0 40 30" fill="none">
<path d="M20.0001 21.8182C23.0126 21.8182 25.4546 19.3761 25.4546 16.3636C25.4546 13.3512 23.0126 10.9091 20.0001 10.9091C16.9876 10.9091 14.5455 13.3512 14.5455 16.3636C14.5455 19.3761 16.9876 21.8182 20.0001 21.8182Z" fill="#767681"/>
<path d="M35.0001 5.45455H29.9717C29.716 5.45455 29.399 5.2892 29.1518 5.02841L26.941 1.5392C26.906 1.48383 26.867 1.43112 26.8242 1.38153C26.0606 0.490909 25.0285 0 23.9205 0H16.0796C14.9717 0 13.9396 0.490909 13.1759 1.38153C13.1332 1.43112 13.0941 1.48383 13.0592 1.5392L10.8484 5.03352C10.6592 5.23977 10.3933 5.45966 10.1137 5.45966V4.77784C10.1137 4.41618 9.97006 4.06934 9.71432 3.8136C9.45859 3.55787 9.11175 3.4142 8.75009 3.4142H6.70463C6.34298 3.4142 5.99613 3.55787 5.7404 3.8136C5.48467 4.06934 5.341 4.41618 5.341 4.77784V5.45966H5.00009C3.91546 5.46079 2.87558 5.89216 2.10863 6.65911C1.34168 7.42605 0.910308 8.46594 0.90918 9.55057V25.9091C0.910308 26.9937 1.34168 28.0336 2.10863 28.8006C2.87558 29.5675 3.91546 29.9989 5.00009 30H35.0001C36.0847 29.9989 37.1246 29.5675 37.8916 28.8006C38.6585 28.0336 39.0899 26.9937 39.091 25.9091V9.54545C39.0899 8.46082 38.6585 7.42094 37.8916 6.65399C37.1246 5.88704 36.0847 5.45567 35.0001 5.45455ZM20.0001 24.5455C18.3819 24.5455 16.8 24.0656 15.4545 23.1666C14.109 22.2675 13.0603 20.9897 12.4411 19.4947C11.8218 17.9997 11.6598 16.3546 11.9755 14.7674C12.2912 13.1803 13.0704 11.7225 14.2147 10.5782C15.3589 9.43397 16.8168 8.65473 18.4039 8.33903C19.991 8.02333 21.6361 8.18536 23.1311 8.80462C24.6262 9.42388 25.904 10.4726 26.803 11.8181C27.7021 13.1636 28.1819 14.7454 28.1819 16.3636C28.1794 18.5328 27.3166 20.6125 25.7828 22.1463C24.2489 23.6802 22.1693 24.543 20.0001 24.5455Z" fill="#767681"/>
</svg>