<svg width="24" height="22" viewBox="0 0 24 22" fill="none" xmlns="http://www.w3.org/2000/svg">
<g id="Group 4">
<g id="Rectangle 107">
<rect x="9" y="4.40039" width="6" height="16" fill="white"/>
<rect x="9" y="4.40039" width="6" height="16" fill="url(#paint0_linear_522_1056)"/>
</g>
<path id="Vector" d="M13.5382 0.888103L23.762 18.5957C23.9179 18.8657 24 19.172 24 19.4838C24 19.7956 23.9179 20.1019 23.762 20.3719C23.6062 20.6419 23.3819 20.8661 23.1119 21.022C22.8419 21.1779 22.5356 21.26 22.2238 21.26H1.77616C1.46438 21.26 1.15808 21.1779 0.888073 21.022C0.618062 20.8661 0.393844 20.6419 0.237955 20.3719C0.0820658 20.1019 -1.98017e-06 19.7956 0 19.4838C1.98024e-06 19.172 0.0820737 18.8657 0.237966 18.5957L10.4618 0.888103C11.1451 -0.296034 12.8538 -0.296034 13.5382 0.888103ZM12 14.9225C11.6859 14.9225 11.3848 15.0473 11.1627 15.2693C10.9406 15.4914 10.8159 15.7926 10.8159 16.1066C10.8159 16.4207 10.9406 16.7219 11.1627 16.9439C11.3848 17.166 11.6859 17.2908 12 17.2908C12.3141 17.2908 12.6152 17.166 12.8373 16.9439C13.0594 16.7219 13.1841 16.4207 13.1841 16.1066C13.1841 15.7926 13.0594 15.4914 12.8373 15.2693C12.6152 15.0473 12.3141 14.9225 12 14.9225ZM12 6.63354C11.71 6.63357 11.43 6.74006 11.2133 6.93279C10.9966 7.12551 10.8581 7.39109 10.8242 7.67913L10.8159 7.81767V12.5542C10.8162 12.856 10.9318 13.1463 11.139 13.3658C11.3461 13.5853 11.6293 13.7173 11.9306 13.735C12.2319 13.7527 12.5286 13.6547 12.76 13.461C12.9915 13.2672 13.1402 12.9925 13.1758 12.6928L13.1841 12.5542V7.81767C13.1841 7.50362 13.0594 7.20243 12.8373 6.98036C12.6152 6.75829 12.3141 6.63354 12 6.63354Z" fill="#FB993C"/>
</g>
<defs>
<linearGradient id="paint0_linear_522_1056" x1="12" y1="-14.2359" x2="12" y2="31.964" gradientUnits="userSpaceOnUse">
<stop stop-color="#FFF8ED" stop-opacity="0.5"/>
<stop offset="1" stop-color="#D6E4FF"/>
</linearGradient>
</defs>
</svg>
