<svg width="11" height="12" viewBox="0 0 11 12" fill="none" xmlns="http://www.w3.org/2000/svg">
<path id="Vector" d="M10.7786 9.96973C10.9195 10.1106 10.9987 10.3017 10.9987 10.501C10.9987 10.7002 10.9195 10.8913 10.7786 11.0322C10.6377 11.1731 10.4467 11.2523 10.2474 11.2523C10.0481 11.2523 9.85704 11.1731 9.71614 11.0322L5.74802 7.06285L1.77864 11.031C1.63775 11.1719 1.44665 11.251 1.24739 11.251C1.04814 11.251 0.857041 11.1719 0.716145 11.031C0.575249 10.8901 0.496094 10.699 0.496094 10.4997C0.496094 10.3005 0.575249 10.1094 0.716145 9.96848L4.68552 6.00035L0.717395 2.03098C0.576498 1.89008 0.497344 1.69899 0.497344 1.49973C0.497344 1.30047 0.576498 1.10937 0.717395 0.968479C0.858291 0.827582 1.04939 0.748428 1.24864 0.748428C1.4479 0.748428 1.639 0.827582 1.77989 0.968479L5.74802 4.93785L9.71739 0.967854C9.85829 0.826957 10.0494 0.747803 10.2486 0.747803C10.4479 0.747803 10.639 0.826957 10.7799 0.967854C10.9208 1.10875 10.9999 1.29985 10.9999 1.4991C10.9999 1.69836 10.9208 1.88946 10.7799 2.03035L6.81052 6.00035L10.7786 9.96973Z" />
</svg>
