<svg width="29" height="22" viewBox="0 0 29 22" fill="none" xmlns="http://www.w3.org/2000/svg">
<path d="M3.14286 0C2.30932 0 1.50992 0.331122 0.920522 0.920522C0.331122 1.50992 0 2.30932 0 3.14286V18.8571C0 19.6907 0.331122 20.4901 0.920522 21.0795C1.50992 21.6689 2.30932 22 3.14286 22H25.1429C25.9764 22 26.7758 21.6689 27.3652 21.0795C27.9546 20.4901 28.2857 19.6907 28.2857 18.8571V3.14286C28.2857 2.30932 27.9546 1.50992 27.3652 0.920522C26.7758 0.331122 25.9764 0 25.1429 0H3.14286ZM3.14286 17.2857L8.64286 10.2143L12.5714 14.9286L18.0714 7.85714L25.1429 17.2857H3.14286Z" fill="#767681"/>
</svg>
