<svg xmlns="http://www.w3.org/2000/svg" width="19" height="20" viewBox="0 0 19 20" fill="none">
  <path d="M6.68079 1.31941C4.82391 1.96358 3.22254 3.18623 2.1119 4.80778C1.00125 6.42932 0.439874 8.3643 0.510221 10.3285C0.580567 12.2927 1.27893 14.1825 2.50273 15.7204C3.72653 17.2584 5.41126 18.3633 7.30946 18.873C8.84838 19.2701 10.4607 19.2876 12.0079 18.9238C13.4094 18.609 14.7052 17.9356 15.7683 16.9696C16.8748 15.9334 17.6779 14.6153 18.0914 13.1569C18.5408 11.5709 18.6207 9.90302 18.3251 8.28133H9.68334V11.8661H14.6881C14.5881 12.4378 14.3737 12.9835 14.0579 13.4705C13.742 13.9575 13.3312 14.3757 12.85 14.7002C12.2388 15.1045 11.5499 15.3765 10.8274 15.4988C10.1029 15.6335 9.35965 15.6335 8.63506 15.4988C7.90067 15.3469 7.20594 15.0438 6.59512 14.6088C5.61385 13.9141 4.87704 12.9273 4.48985 11.7891C4.09611 10.6296 4.09611 9.37259 4.48985 8.21309C4.76546 7.40033 5.22108 6.66032 5.82271 6.04829C6.51119 5.33503 7.38283 4.82519 8.342 4.57471C9.30117 4.32422 10.3108 4.34277 11.2601 4.62832C12.0017 4.85596 12.6799 5.25371 13.2405 5.78985C13.8048 5.22844 14.3682 4.66558 14.9306 4.10127C15.2209 3.79782 15.5375 3.50889 15.8235 3.19818C14.9677 2.40177 13.9631 1.78207 12.8674 1.37458C10.872 0.650061 8.68875 0.630591 6.68079 1.31941Z" fill="white"/>
  <path d="M6.68079 1.31941C8.68858 0.630123 10.8719 0.649081 12.8674 1.37313C13.9633 1.78339 14.9674 2.40607 15.822 3.20544C15.5316 3.51615 15.2253 3.80653 14.9291 4.10853C14.3658 4.67091 13.8029 5.23134 13.2405 5.78985C12.6799 5.25371 12.0017 4.85596 11.2601 4.62832C10.3111 4.34177 9.30151 4.32215 8.34209 4.57161C7.38267 4.82107 6.51049 5.32997 5.82125 6.04248C5.21963 6.65451 4.76401 7.39452 4.4884 8.20728L1.47858 5.87696C2.55592 3.74056 4.42125 2.10638 6.68079 1.31941Z" fill="#E33629"/>
  <path d="M0.680033 8.1855C0.841807 7.38375 1.11039 6.60731 1.47858 5.87696L4.4884 8.21309C4.09466 9.37259 4.09466 10.6296 4.4884 11.7891C3.48561 12.5635 2.48234 13.3417 1.47858 14.1238C0.556839 12.2891 0.275723 10.1986 0.680033 8.1855Z" fill="#F8BD00"/>
  <path d="M9.68334 8.27988H18.3251C18.6207 9.90156 18.5408 11.5694 18.0914 13.1554C17.6779 14.6138 16.8748 15.932 15.7683 16.9681C14.797 16.2102 13.8213 15.4581 12.85 14.7002C13.3315 14.3754 13.7426 13.9567 14.0584 13.4692C14.3743 12.9817 14.5884 12.4355 14.6881 11.8632H9.68334C9.68189 10.6697 9.68334 9.4748 9.68334 8.27988Z" fill="#587DBD"/>
  <path d="M1.47713 14.1238C2.48089 13.3495 3.48416 12.5712 4.48695 11.7891C4.87491 12.9277 5.61277 13.9146 6.59512 14.6088C7.20784 15.0418 7.90407 15.3425 8.63942 15.4915C9.364 15.6263 10.1072 15.6263 10.8318 15.4915C11.5543 15.3692 12.2432 15.0972 12.8543 14.693C13.8256 15.4509 14.8013 16.203 15.7727 16.9609C14.7097 17.9274 13.4139 18.6013 12.0122 18.9166C10.4651 19.2803 8.85274 19.2629 7.31382 18.8658C6.09668 18.5408 4.9598 17.9679 3.97442 17.183C2.93146 16.355 2.07961 15.3114 1.47713 14.1238Z" fill="#319F43"/>
</svg>