<svg width="38" height="39" viewBox="0 0 38 39" fill="none" xmlns="http://www.w3.org/2000/svg">
<g id="Group 10">
<path id="Rectangle 109" opacity="0.2" d="M19.7139 1.96045L38.0002 20.1584L19.4707 38.5982L1.18435 20.4003L5.5946 19.0955L5.94344 16.554L10.7273 10.9156L14.791 6.87149L17.8556 6.4549L19.7139 1.96045Z" fill="url(#paint0_linear_837_5570)"/>
<path id="Vector" d="M15.214 1.7293C14.2827 2.65616 13.8001 4.27161 14.151 5.53653C14.3378 6.20516 14.3679 7.01476 13.8753 7.50626L6.73022 14.6167C6.23634 15.107 5.4228 15.0771 4.74966 14.8912C3.47985 14.5419 1.85654 15.0222 0.925181 15.949C0.631921 16.2408 0.399278 16.5872 0.240535 16.9684C0.081792 17.3496 5.82311e-05 17.7583 3.11458e-08 18.1709C-0.000117509 19.0043 0.332455 19.8037 0.924554 20.3931C1.51665 20.9825 2.31978 21.3137 3.15725 21.3138C3.99473 21.3139 4.79795 20.9829 5.39021 20.3937C4.79811 20.9831 4.46554 21.7824 4.46566 22.6159C4.46578 23.4493 4.79857 24.2485 5.39084 24.8378C5.9831 25.427 6.78632 25.758 7.6238 25.7578C8.46127 25.7577 9.2644 25.4265 9.8565 24.8371C10.7879 23.9103 11.2705 22.2948 10.9195 21.0299C10.7327 20.3613 10.7026 19.5517 11.1953 19.0602L18.3403 11.9497C18.8342 11.4594 19.6477 11.4894 20.3209 11.6752C21.5907 12.0245 23.214 11.5443 24.1453 10.6174C24.7376 10.0282 25.0704 9.22893 25.0705 8.39551C25.0706 7.56209 24.7381 6.76275 24.146 6.17335C23.8528 5.88151 23.5047 5.64999 23.1216 5.49202C22.7386 5.33404 22.3279 5.25271 21.9133 5.25265C21.0758 5.25253 20.2726 5.58349 19.6803 6.17273C20.2724 5.58333 20.605 4.784 20.6049 3.95057C20.6048 3.11715 20.272 2.31791 19.6797 1.72868C19.0874 1.13944 18.2842 0.808477 17.4467 0.808594C16.6093 0.808711 15.8061 1.1399 15.214 1.7293Z" fill="#464FE5"/>
</g>
<defs>
<linearGradient id="paint0_linear_837_5570" x1="12.8853" y1="11.7903" x2="26.6169" y2="28.6362" gradientUnits="userSpaceOnUse">
<stop stop-color="#464FE5"/>
<stop offset="1" stop-color="#819AF8" stop-opacity="0"/>
</linearGradient>
</defs>
</svg>
