<svg width="48" height="49" viewBox="0 0 48 49" fill="none" xmlns="http://www.w3.org/2000/svg">
<g id="Group 10">
<path id="Vector" d="M30.6392 5.67018C28.9987 7.31072 28.1486 10.1701 28.7668 12.409C29.0958 13.5925 29.1488 15.0255 28.2811 15.8954L15.6956 28.481C14.8257 29.3487 13.3927 29.2957 12.207 28.9668C9.97032 28.3485 7.11099 29.1986 5.47046 30.8391C4.9539 31.3556 4.54412 31.9687 4.2645 32.6434C3.98489 33.3182 3.84092 34.0415 3.84082 34.7719C3.84061 36.2471 4.42641 37.6619 5.46936 38.7051C6.5123 39.7484 7.92694 40.3346 9.40209 40.3348C10.8772 40.335 12.292 39.7492 13.3353 38.7062C12.2923 39.7495 11.7065 41.1643 11.7067 42.6395C11.707 44.1146 12.2932 45.5293 13.3364 46.5722C14.3796 47.6152 15.7944 48.201 17.2696 48.2008C18.7447 48.2006 20.1594 47.6144 21.2023 46.5711C22.8428 44.9306 23.6929 42.0712 23.0747 39.8323C22.7457 38.6488 22.6927 37.2158 23.5604 36.3459L36.1459 23.7603C37.0159 22.8926 38.4488 22.9456 39.6345 23.2745C41.8712 23.8928 44.7305 23.0427 46.3711 21.4022C47.4143 20.3592 48.0005 18.9446 48.0007 17.4694C48.0009 15.9942 47.4151 14.5794 46.3722 13.5362C45.8558 13.0196 45.2427 12.6098 44.5679 12.3302C43.8931 12.0506 43.1699 11.9066 42.4394 11.9065C40.9643 11.9063 39.5495 12.4921 38.5062 13.5351C39.5492 12.4918 40.135 11.077 40.1348 9.60184C40.1346 8.12668 39.5484 6.71202 38.5051 5.66908C37.4619 4.62613 36.0471 4.04032 34.572 4.04053C33.0968 4.04073 31.6822 4.62694 30.6392 5.67018Z" fill="#A5BEFC"/>
<path id="Vector_2" d="M26.7984 1.82985C25.1579 3.47039 24.3078 6.32975 24.926 8.56866C25.255 9.75214 25.308 11.1851 24.4403 12.0551L11.8548 24.6407C10.9848 25.5084 9.55187 25.4554 8.36618 25.1264C6.1295 24.5082 3.27017 25.3583 1.62964 26.9988C1.11308 27.5152 0.703298 28.1283 0.423685 28.8031C0.144071 29.4779 0.00010257 30.2011 5.4861e-08 30.9316C-0.000206983 32.4067 0.585594 33.8216 1.62853 34.8648C2.67148 35.908 4.08612 36.4942 5.56127 36.4945C7.03642 36.4947 8.45123 35.9089 9.49446 34.8659C8.45152 35.9091 7.86572 37.324 7.86593 38.7991C7.86613 40.2743 8.45233 41.6889 9.49557 42.7319C10.5388 43.7748 11.9536 44.3607 13.4288 44.3604C14.9039 44.3602 16.3186 43.774 17.3615 42.7308C19.002 41.0902 19.8521 38.2309 19.2339 35.992C18.9049 34.8085 18.8519 33.3755 19.7196 32.5056L32.3051 19.92C33.175 19.0522 34.608 19.1052 35.7937 19.4342C38.0304 20.0525 40.8897 19.2024 42.5303 17.5618C43.5735 16.5189 44.1597 15.1042 44.1599 13.6291C44.1601 12.1539 43.5743 10.7391 42.5314 9.69584C42.0149 9.17928 41.4018 8.76949 40.7271 8.48987C40.0523 8.21026 39.329 8.06629 38.5986 8.06619C37.1235 8.06598 35.7087 8.65178 34.6654 9.69473C35.7084 8.65149 36.2942 7.23667 36.294 5.76151C36.2938 4.28635 35.7076 2.87169 34.6643 1.82874C33.6211 0.785794 32.2063 0.199988 30.7311 0.200195C29.256 0.200402 27.8413 0.786605 26.7984 1.82985Z" fill="#464FE5"/>
</g>
</svg>
