<svg width="87" height="57" viewBox="0 0 87 57" fill="none" xmlns="http://www.w3.org/2000/svg">
<g id="Frame 254">
<g id="Rectangle 101">
<path d="M14.8477 5.12001C14.8477 2.29231 17.14 0 19.9677 0H66.0476C68.8753 0 71.1677 2.2923 71.1677 5.12V44.8C71.1677 51.1623 66.01 56.32 59.6477 56.32H26.3677C20.0053 56.32 14.8477 51.1623 14.8477 44.8V5.12001Z" fill="white"/>
<path d="M14.8477 5.12001C14.8477 2.29231 17.14 0 19.9677 0H66.0476C68.8753 0 71.1677 2.2923 71.1677 5.12V44.8C71.1677 51.1623 66.01 56.32 59.6477 56.32H26.3677C20.0053 56.32 14.8477 51.1623 14.8477 44.8V5.12001Z" fill="url(#paint0_linear_258_1369)"/>
</g>
<path id="Vector 25" d="M38 57L70.5122 38.8314C71.1787 38.4589 72 38.9408 72 39.7044V49.1795C72 49.7318 71.5523 50.1795 71 50.1795H62.697C62.1447 50.1795 61.697 50.6272 61.697 51.1795V56C61.697 56.5523 61.2493 57 60.697 57H38Z" fill="url(#paint1_linear_258_1369)"/>
<g id="Vector">
<path d="M36.2856 11.0559C36.2856 12.8939 34.7956 14.3839 32.9576 14.3839C31.1196 14.3839 29.6296 12.8939 29.6296 11.0559C29.6296 9.21787 31.1196 7.72788 32.9576 7.72788C34.7956 7.72788 36.2856 9.21787 36.2856 11.0559Z" fill="#464FE5"/>
<path d="M56.7656 11.0559C56.7656 12.8939 55.2756 14.3839 53.4376 14.3839C51.5996 14.3839 50.1096 12.8939 50.1096 11.0559C50.1096 9.21787 51.5996 7.72788 53.4376 7.72788C55.2756 7.72788 56.7656 9.21787 56.7656 11.0559Z" fill="#464FE5"/>
<path d="M57.2776 27.7785C57.2776 31.4239 55.8831 33.3532 53.0536 35.6172C50.5802 37.5963 43.3256 36.9651 43.3256 31.8203C43.3256 36.9651 35.815 37.5963 33.3416 35.6172C30.512 33.3532 29.3736 31.4239 29.3736 27.7785C29.3736 20.9464 35.6201 15.4079 43.3256 15.4079C51.0311 15.4079 57.2776 20.9464 57.2776 27.7785Z" fill="#464FE5"/>
<path d="M3.27267 13.1045L15.9064 1.37758C19.1826 -1.66353 24.5096 0.659984 24.5096 5.13013V23.827C24.5096 32.4083 14.5876 37.1835 7.88113 31.8299L3.85064 28.6124C-1.04213 24.7067 -1.3158 17.3636 3.27267 13.1045Z" fill="#464FE5"/>
<path d="M82.8665 13.1045L70.2328 1.37758C66.9565 -1.66353 61.6296 0.659984 61.6296 5.13013V23.827C61.6296 32.4083 71.5515 37.1835 78.258 31.8299L82.2885 28.6124C87.1813 24.7067 87.455 17.3636 82.8665 13.1045Z" fill="#464FE5"/>
</g>
<path id="Line 57" d="M40.96 20.2246H45.056" stroke="white" stroke-width="3.072" stroke-linecap="round"/>
<path id="Vector 24" d="M48 57L15.4878 38.8314C14.8213 38.4589 14 38.9408 14 39.7044V49.1795C14 49.7318 14.4477 50.1795 15 50.1795H23.303C23.8553 50.1795 24.303 50.6272 24.303 51.1795V56C24.303 56.5523 24.7507 57 25.303 57H48Z" fill="#D6E4FF"/>
</g>
<defs>
<linearGradient id="paint0_linear_258_1369" x1="43.0077" y1="-65.5996" x2="43.0077" y2="97.024" gradientUnits="userSpaceOnUse">
<stop stop-color="#FFF8ED" stop-opacity="0.5"/>
<stop offset="1" stop-color="#D6E4FF"/>
</linearGradient>
<linearGradient id="paint1_linear_258_1369" x1="55" y1="38" x2="55" y2="57" gradientUnits="userSpaceOnUse">
<stop stop-color="#D6E4FF"/>
<stop offset="1" stop-color="#B9D1FF"/>
</linearGradient>
</defs>
</svg>
