<svg width="40" height="40" viewBox="0 0 40 40" fill="none" xmlns="http://www.w3.org/2000/svg">
<path id="Vector" d="M19.998 0C31.0449 0 40 8.9551 40 20.002C40 31.0469 31.0449 40 19.998 40C8.9511 40 3.34947e-07 31.0469 3.34947e-07 20.002C-0.00199947 8.9551 8.9511 0 19.998 0ZM19.99 16.4983C19.4999 16.499 19.0271 16.6796 18.6614 17.0059C18.2957 17.3321 18.0626 17.7813 18.0062 18.2682L17.9922 18.5001L18.0002 29.503L18.0122 29.735C18.0681 30.2228 18.3015 30.673 18.6678 30.9998C19.0342 31.3266 19.508 31.5072 19.999 31.5072C20.49 31.5072 20.9638 31.3266 21.3302 30.9998C21.6965 30.673 21.9299 30.2228 21.9858 29.735L21.9978 29.501L21.9898 18.4981L21.9758 18.2642C21.918 17.7777 21.6837 17.3294 21.3173 17.0043C20.9509 16.6792 20.4779 16.4999 19.988 16.5003M19.998 9.0031C19.3342 9.0031 18.6976 9.26678 18.2283 9.73614C17.7589 10.2055 17.4952 10.8421 17.4952 11.5058C17.4952 12.1696 17.7589 12.8062 18.2283 13.2756C18.6976 13.7449 19.3342 14.0086 19.998 14.0086C20.6618 14.0086 21.2984 13.7449 21.7677 13.2756C22.2371 12.8062 22.5007 12.1696 22.5007 11.5058C22.5007 10.8421 22.2371 10.2055 21.7677 9.73614C21.2984 9.26678 20.6618 9.0031 19.998 9.0031Z" fill="#464FE5"/>
</svg>
