<svg width="18" height="21" viewBox="0 0 18 21" fill="none" xmlns="http://www.w3.org/2000/svg">
<path d="M9 0.40918C7.04686 0.40918 5.17371 1.18506 3.79263 2.56614C2.41156 3.94722 1.63567 5.82037 1.63567 7.77351V11.7028L0.0580706 15.6533C0.00865911 15.7774 -0.00963531 15.9117 0.0047839 16.0444C0.0192031 16.1772 0.0658977 16.3044 0.140792 16.415C0.215687 16.5256 0.316505 16.6161 0.434447 16.6788C0.552389 16.7414 0.68387 16.7742 0.817415 16.7744H17.1826C17.3161 16.7742 17.4476 16.7414 17.5656 16.6788C17.6835 16.6161 17.7843 16.5256 17.8592 16.415C17.9341 16.3044 17.9808 16.1772 17.9952 16.0444C18.0096 15.9117 17.9913 15.7774 17.9419 15.6533L16.3643 11.7011V7.77351C16.3643 5.82037 15.5884 3.94722 14.2074 2.56614C12.8263 1.18506 10.9531 0.40918 9 0.40918ZM9 20.8656C8.27424 20.8658 7.569 20.6248 6.99518 20.1804C6.42136 19.7361 6.01151 19.1136 5.83007 18.4109H12.1699C11.9885 19.1136 11.5786 19.7361 11.0048 20.1804C10.431 20.6248 9.72576 20.8658 9 20.8656Z" fill="#767681"/>
</svg>
