<svg width="6" height="10" viewBox="0 0 6 10" fill="none" xmlns="http://www.w3.org/2000/svg">
<path id="Vector" fill-rule="evenodd" clip-rule="evenodd" d="M5.77093 4.45975C5.9176 4.6006 6 4.79161 6 4.99077C6 5.18993 5.9176 5.38094 5.77093 5.52179L1.34511 9.7707C1.27294 9.84244 1.18661 9.89966 1.09116 9.93902C0.995705 9.97839 0.893043 9.9991 0.789161 9.99997C0.68528 10.0008 0.582259 9.98183 0.486109 9.94407C0.38996 9.9063 0.302607 9.85053 0.229149 9.78001C0.15569 9.70949 0.0975976 9.62563 0.0582597 9.53332C0.0189218 9.44102 -0.000873192 9.34211 2.95066e-05 9.24238C0.000932205 9.14266 0.0225147 9.0441 0.0635175 8.95246C0.10452 8.86083 0.164122 8.77795 0.238846 8.70866L4.11154 4.99077L0.238846 1.27288C0.0963319 1.13122 0.0174741 0.941497 0.0192566 0.744564C0.0210392 0.547631 0.103319 0.359248 0.248376 0.21999C0.393432 0.0807323 0.589659 0.00174043 0.794792 2.85755e-05C0.999925 -0.00168233 1.19755 0.0740232 1.34511 0.21084L5.77093 4.45975Z" fill="#767681"/>
</svg>
