<svg width="32" height="21" viewBox="0 0 32 21" fill="none" xmlns="http://www.w3.org/2000/svg">
<path d="M5.51562 1.902C5.51562 0.851553 6.36718 0 7.41762 0H24.5356C25.586 0 26.4376 0.851552 26.4376 1.902V16.6425C26.4376 19.006 24.5216 20.9219 22.1581 20.9219H9.79512C7.43162 20.9219 5.51562 19.006 5.51562 16.6425V1.902Z" fill="white"/>
<path d="M5.51562 1.902C5.51562 0.851553 6.36718 0 7.41762 0H24.5356C25.586 0 26.4376 0.851552 26.4376 1.902V16.6425C26.4376 19.006 24.5216 20.9219 22.1581 20.9219H9.79512C7.43162 20.9219 5.51562 19.006 5.51562 16.6425V1.902Z" fill="url(#paint0_linear_522_1061)"/>
<path d="M13.4799 4.10708C13.4799 4.78986 12.9263 5.34337 12.2436 5.34337C11.5608 5.34337 11.0073 4.78986 11.0073 4.10708C11.0073 3.42429 11.5608 2.87078 12.2436 2.87078C12.9263 2.87078 13.4799 3.42429 13.4799 4.10708Z" fill="#383ECA"/>
<path d="M21.0878 4.10708C21.0878 4.78986 20.5343 5.34337 19.8515 5.34337C19.1688 5.34337 18.6152 4.78986 18.6152 4.10708C18.6152 3.42429 19.1688 2.87078 19.8515 2.87078C20.5343 2.87078 21.0878 3.42429 21.0878 4.10708Z" fill="#383ECA"/>
<path d="M21.278 10.3192C21.278 11.6735 20.76 12.3902 19.7089 13.2312C18.7901 13.9664 16.0951 13.7319 16.0951 11.8207C16.0951 13.7319 13.305 13.9664 12.3862 13.2312C11.3351 12.3902 10.9122 11.6735 10.9122 10.3192C10.9122 7.78123 13.2326 5.72377 16.0951 5.72377C18.9576 5.72377 21.278 7.78123 21.278 10.3192Z" fill="#FB993C"/>
<path d="M1.21611 4.8681L5.90932 0.511747C7.1264 -0.617973 9.10527 0.245173 9.10527 1.90576V8.85134C9.10527 12.0391 5.41943 13.813 2.92807 11.8243L1.43081 10.629C-0.38677 9.17811 -0.488435 6.45029 1.21611 4.8681Z" fill="#383ECA"/>
<path d="M30.7839 4.8681L26.0907 0.511747C24.8736 -0.617973 22.8947 0.245173 22.8947 1.90576V8.85134C22.8947 12.0391 26.5806 13.813 29.0719 11.8243L30.5692 10.629C32.3868 9.17811 32.4884 6.45029 30.7839 4.8681Z" fill="#383ECA"/>
<path d="M15.2158 7.5127H16.7374" stroke="#27272A" stroke-width="1.1412" stroke-linecap="round"/>
<g filter="url(#filter0_b_522_1061)">
<circle cx="20.1768" cy="13.0636" r="4.68069" transform="rotate(-11.0234 20.1768 13.0636)" fill="white" fill-opacity="0.3"/>
<circle cx="20.1768" cy="13.0636" r="4.68069" transform="rotate(-11.0234 20.1768 13.0636)" stroke="#464FE5" stroke-width="1.33734"/>
</g>
<path d="M23.8311 16.666L26.6155 19.3027" stroke="#464FE5" stroke-width="1.33734" stroke-linecap="round"/>
<defs>
<filter id="filter0_b_522_1061" x="9.03103" y="1.91775" width="22.2915" height="22.2915" filterUnits="userSpaceOnUse" color-interpolation-filters="sRGB">
<feFlood flood-opacity="0" result="BackgroundImageFix"/>
<feGaussianBlur in="BackgroundImageFix" stdDeviation="2.89757"/>
<feComposite in2="SourceAlpha" operator="in" result="effect1_backgroundBlur_522_1061"/>
<feBlend mode="normal" in="SourceGraphic" in2="effect1_backgroundBlur_522_1061" result="shape"/>
</filter>
<linearGradient id="paint0_linear_522_1061" x1="15.9766" y1="-24.3692" x2="15.9766" y2="36.0428" gradientUnits="userSpaceOnUse">
<stop stop-color="#FFF8ED" stop-opacity="0.5"/>
<stop offset="1" stop-color="#D6E4FF"/>
</linearGradient>
</defs>
</svg>
