<svg width="75" height="76" viewBox="0 0 75 76" fill="none" xmlns="http://www.w3.org/2000/svg">
<g id="Group 10">
<path id="Vector" d="M47.8726 8.74651C45.3093 11.3098 43.981 15.7776 44.947 19.2758C45.4611 21.125 45.5439 23.3641 44.188 24.7234L24.5232 44.3882C23.1639 45.7441 20.9248 45.6613 19.0722 45.1472C15.5774 44.1812 11.1096 45.5095 8.54632 48.0728C7.73919 48.8797 7.09891 49.8377 6.66201 50.892C6.22511 51.9463 6.00016 53.0764 6 54.2177C5.99968 56.5226 6.91499 58.7333 8.54459 60.3633C10.1742 61.9934 12.3846 62.9093 14.6895 62.9097C16.9944 62.91 19.2051 61.9947 20.8351 60.3651C19.2055 61.9951 18.2902 64.2058 18.2905 66.5107C18.2909 68.8156 19.2068 71.026 20.8369 72.6556C22.4669 74.2852 24.6776 75.2005 26.9825 75.2002C29.2874 75.1999 31.4978 74.2839 33.1274 72.6539C35.6907 70.0905 37.019 65.6228 36.053 62.1245C35.5389 60.2754 35.4561 58.0363 36.812 56.677L56.4768 37.0122C57.8361 35.6563 60.0752 35.7391 61.9278 36.2532C65.4226 37.2192 69.8903 35.8909 72.4537 33.3276C74.0837 31.698 74.9997 29.4876 75 27.1827C75.0003 24.8778 74.085 22.6671 72.4554 21.0371C71.6485 20.2299 70.6905 19.5896 69.6362 19.1527C68.5818 18.7158 67.4518 18.4909 66.3105 18.4907C64.0056 18.4904 61.7949 19.4057 60.1649 21.0353C61.7945 19.4053 62.7098 17.1946 62.7095 14.8897C62.7091 12.5848 61.7932 10.3744 60.1631 8.74479C58.5331 7.11519 56.3224 6.19987 54.0175 6.2002C51.7126 6.20052 49.5022 7.11646 47.8726 8.74651Z" fill="#6376F1"/>
<path id="Vector_2" d="M41.8726 2.74651C39.3093 5.30984 37.981 9.77756 38.947 13.2758C39.4611 15.125 39.5439 17.3641 38.188 18.7234L18.5232 38.3882C17.1639 39.7441 14.9248 39.6613 13.0722 39.1472C9.57737 38.1812 5.10965 39.5095 2.54632 42.0728C1.73919 42.8797 1.09891 43.8377 0.662009 44.892C0.225111 45.9463 0.000160266 47.0764 8.57206e-08 48.2177C-0.000323412 50.5226 0.914993 52.7333 2.54459 54.3633C4.17419 55.9934 6.38458 56.9093 8.6895 56.9097C10.9944 56.91 13.2051 55.9947 14.8351 54.3651C13.2055 55.9951 12.2902 58.2058 12.2905 60.5107C12.2909 62.8156 13.2068 65.026 14.8369 66.6556C16.4669 68.2852 18.6776 69.2005 20.9825 69.2002C23.2874 69.1999 25.4978 68.2839 27.1274 66.6539C29.6907 64.0905 31.019 59.6228 30.053 56.1245C29.5389 54.2754 29.4561 52.0363 30.812 50.677L50.4768 31.0122C51.8361 29.6563 54.0752 29.7391 55.9278 30.2532C59.4226 31.2192 63.8903 29.8909 66.4537 27.3276C68.0837 25.698 68.9997 23.4876 69 21.1827C69.0003 18.8778 68.085 16.6671 66.4554 15.0371C65.6485 14.2299 64.6905 13.5896 63.6362 13.1527C62.5818 12.7158 61.4518 12.4909 60.3105 12.4907C58.0056 12.4904 55.7949 13.4057 54.1649 15.0353C55.7945 13.4053 56.7098 11.1946 56.7095 8.8897C56.7091 6.58478 55.7932 4.37438 54.1631 2.74479C52.5331 1.11519 50.3224 0.199872 48.0175 0.200195C45.7126 0.200519 43.5022 1.11646 41.8726 2.74651Z" fill="white"/>
</g>
</svg>
