<svg width="16" height="20" viewBox="0 0 16 20" fill="none" xmlns="http://www.w3.org/2000/svg">
<path id="Vector" d="M15.664 9.28674C15.5578 9.39326 15.4317 9.47777 15.2928 9.53543C15.1539 9.5931 15.005 9.62278 14.8547 9.62278C14.7043 9.62278 14.5554 9.5931 14.4165 9.53543C14.2777 9.47777 14.1515 9.39326 14.0454 9.28674L9.14305 4.3844V18.3802C9.14305 18.6832 9.02268 18.9738 8.80842 19.1881C8.59416 19.4024 8.30355 19.5227 8.00054 19.5227C7.69753 19.5227 7.40692 19.4024 7.19266 19.1881C6.9784 18.9738 6.85802 18.6832 6.85802 18.3802V4.3844L1.95378 9.28674C1.73914 9.50138 1.44804 9.62196 1.1445 9.62196C0.840958 9.62196 0.54985 9.50138 0.335216 9.28674C0.120581 9.07211 3.19831e-09 8.781 0 8.47746C-3.19831e-09 8.17392 0.120581 7.88281 0.335216 7.66818L7.19031 0.813089C7.29645 0.706577 7.42257 0.622065 7.56145 0.5644C7.70032 0.506734 7.84922 0.477051 7.99959 0.477051C8.14996 0.477051 8.29885 0.506734 8.43773 0.5644C8.5766 0.622065 8.70273 0.706577 8.80887 0.813089L15.664 7.66818C15.7705 7.77432 15.855 7.90045 15.9127 8.03932C15.9703 8.1782 16 8.32709 16 8.47746C16 8.62783 15.9703 8.77672 15.9127 8.9156C15.855 9.05447 15.7705 9.1806 15.664 9.28674Z" fill="#434349"/>
</svg>
