<svg width="20" height="23" viewBox="0 0 20 23" fill="none" xmlns="http://www.w3.org/2000/svg">
<g id="state=alert">
<path id="Vector" d="M10 1.40918C8.04686 1.40918 6.17371 2.18506 4.79263 3.56614C3.41156 4.94722 2.63567 6.82037 2.63567 8.77351V12.7028L1.05807 16.6533C1.00866 16.7774 0.990365 16.9117 1.00478 17.0444C1.0192 17.1772 1.0659 17.3044 1.14079 17.415C1.21569 17.5256 1.3165 17.6161 1.43445 17.6788C1.55239 17.7414 1.68387 17.7742 1.81741 17.7744H18.1826C18.3161 17.7742 18.4476 17.7414 18.5656 17.6788C18.6835 17.6161 18.7843 17.5256 18.8592 17.415C18.9341 17.3044 18.9808 17.1772 18.9952 17.0444C19.0096 16.9117 18.9913 16.7774 18.9419 16.6533L17.3643 12.7011V8.77351C17.3643 6.82037 16.5884 4.94722 15.2074 3.56614C13.8263 2.18506 11.9531 1.40918 10 1.40918ZM10 21.8656C9.27424 21.8658 8.569 21.6248 7.99518 21.1804C7.42136 20.7361 7.01151 20.1136 6.83007 19.4109H13.1699C12.9885 20.1136 12.5786 20.7361 12.0048 21.1804C11.431 21.6248 10.7258 21.8658 10 21.8656Z" fill="#27272A"/>
<circle id="Ellipse 47" cx="16.6673" cy="3.60628" r="3.33333" fill="#C2480C"/>
</g>
</svg>
